%TF.GenerationSoftware,KiCad,Pcbnew,8.99.0-3458-gcd40f6046b*%
%TF.CreationDate,2025-04-04T18:06:16+05:30*%
%TF.ProjectId,Lighting for printopus,4c696768-7469-46e6-9720-666f72207072,rev?*%
%TF.SameCoordinates,Original*%
%TF.FileFunction,Legend,Top*%
%TF.FilePolarity,Positive*%
%FSLAX46Y46*%
G04 Gerber Fmt 4.6, Leading zero omitted, Abs format (unit mm)*
G04 Created by KiCad (PCBNEW 8.99.0-3458-gcd40f6046b) date 2025-04-04 18:06:16*
%MOMM*%
%LPD*%
G01*
G04 APERTURE LIST*
%ADD10C,0.100000*%
%ADD11C,0.101600*%
%ADD12C,0.150000*%
%ADD13C,0.200000*%
%ADD14C,0.152400*%
G04 APERTURE END LIST*
D10*
X242018169Y-95658133D02*
X241351503Y-96324800D01*
X241684836Y-95658133D02*
X242018169Y-95658133D01*
X242018169Y-95658133D02*
X242018169Y-95991466D01*
D11*
X101317504Y-91535240D02*
X100761123Y-91535240D01*
X100761123Y-91535240D02*
X100761123Y-90366840D01*
X101706971Y-90923221D02*
X102096438Y-90923221D01*
X102263352Y-91535240D02*
X101706971Y-91535240D01*
X101706971Y-91535240D02*
X101706971Y-90366840D01*
X101706971Y-90366840D02*
X102263352Y-90366840D01*
X102764095Y-91535240D02*
X102764095Y-90366840D01*
X102764095Y-90366840D02*
X103042285Y-90366840D01*
X103042285Y-90366840D02*
X103209200Y-90422478D01*
X103209200Y-90422478D02*
X103320476Y-90533754D01*
X103320476Y-90533754D02*
X103376114Y-90645030D01*
X103376114Y-90645030D02*
X103431752Y-90867582D01*
X103431752Y-90867582D02*
X103431752Y-91034497D01*
X103431752Y-91034497D02*
X103376114Y-91257049D01*
X103376114Y-91257049D02*
X103320476Y-91368325D01*
X103320476Y-91368325D02*
X103209200Y-91479602D01*
X103209200Y-91479602D02*
X103042285Y-91535240D01*
X103042285Y-91535240D02*
X102764095Y-91535240D01*
X104433238Y-90366840D02*
X104210685Y-90366840D01*
X104210685Y-90366840D02*
X104099409Y-90422478D01*
X104099409Y-90422478D02*
X104043771Y-90478116D01*
X104043771Y-90478116D02*
X103932495Y-90645030D01*
X103932495Y-90645030D02*
X103876857Y-90867582D01*
X103876857Y-90867582D02*
X103876857Y-91312687D01*
X103876857Y-91312687D02*
X103932495Y-91423963D01*
X103932495Y-91423963D02*
X103988133Y-91479602D01*
X103988133Y-91479602D02*
X104099409Y-91535240D01*
X104099409Y-91535240D02*
X104321962Y-91535240D01*
X104321962Y-91535240D02*
X104433238Y-91479602D01*
X104433238Y-91479602D02*
X104488876Y-91423963D01*
X104488876Y-91423963D02*
X104544514Y-91312687D01*
X104544514Y-91312687D02*
X104544514Y-91034497D01*
X104544514Y-91034497D02*
X104488876Y-90923221D01*
X104488876Y-90923221D02*
X104433238Y-90867582D01*
X104433238Y-90867582D02*
X104321962Y-90811944D01*
X104321962Y-90811944D02*
X104099409Y-90811944D01*
X104099409Y-90811944D02*
X103988133Y-90867582D01*
X103988133Y-90867582D02*
X103932495Y-90923221D01*
X103932495Y-90923221D02*
X103876857Y-91034497D01*
D12*
X236333333Y-91859580D02*
X236285714Y-91907200D01*
X236285714Y-91907200D02*
X236142857Y-91954819D01*
X236142857Y-91954819D02*
X236047619Y-91954819D01*
X236047619Y-91954819D02*
X235904762Y-91907200D01*
X235904762Y-91907200D02*
X235809524Y-91811961D01*
X235809524Y-91811961D02*
X235761905Y-91716723D01*
X235761905Y-91716723D02*
X235714286Y-91526247D01*
X235714286Y-91526247D02*
X235714286Y-91383390D01*
X235714286Y-91383390D02*
X235761905Y-91192914D01*
X235761905Y-91192914D02*
X235809524Y-91097676D01*
X235809524Y-91097676D02*
X235904762Y-91002438D01*
X235904762Y-91002438D02*
X236047619Y-90954819D01*
X236047619Y-90954819D02*
X236142857Y-90954819D01*
X236142857Y-90954819D02*
X236285714Y-91002438D01*
X236285714Y-91002438D02*
X236333333Y-91050057D01*
X237285714Y-91954819D02*
X236714286Y-91954819D01*
X237000000Y-91954819D02*
X237000000Y-90954819D01*
X237000000Y-90954819D02*
X236904762Y-91097676D01*
X236904762Y-91097676D02*
X236809524Y-91192914D01*
X236809524Y-91192914D02*
X236714286Y-91240533D01*
D11*
X198342261Y-91535240D02*
X197866071Y-91535240D01*
X197866071Y-91535240D02*
X197866071Y-90366840D01*
X198675595Y-90923221D02*
X199008928Y-90923221D01*
X199151785Y-91535240D02*
X198675595Y-91535240D01*
X198675595Y-91535240D02*
X198675595Y-90366840D01*
X198675595Y-90366840D02*
X199151785Y-90366840D01*
X199580357Y-91535240D02*
X199580357Y-90366840D01*
X199580357Y-90366840D02*
X199818452Y-90366840D01*
X199818452Y-90366840D02*
X199961309Y-90422478D01*
X199961309Y-90422478D02*
X200056547Y-90533754D01*
X200056547Y-90533754D02*
X200104166Y-90645030D01*
X200104166Y-90645030D02*
X200151785Y-90867582D01*
X200151785Y-90867582D02*
X200151785Y-91034497D01*
X200151785Y-91034497D02*
X200104166Y-91257049D01*
X200104166Y-91257049D02*
X200056547Y-91368325D01*
X200056547Y-91368325D02*
X199961309Y-91479602D01*
X199961309Y-91479602D02*
X199818452Y-91535240D01*
X199818452Y-91535240D02*
X199580357Y-91535240D01*
X201104166Y-91535240D02*
X200532738Y-91535240D01*
X200818452Y-91535240D02*
X200818452Y-90366840D01*
X200818452Y-90366840D02*
X200723214Y-90533754D01*
X200723214Y-90533754D02*
X200627976Y-90645030D01*
X200627976Y-90645030D02*
X200532738Y-90700668D01*
X202008928Y-90366840D02*
X201532738Y-90366840D01*
X201532738Y-90366840D02*
X201485119Y-90923221D01*
X201485119Y-90923221D02*
X201532738Y-90867582D01*
X201532738Y-90867582D02*
X201627976Y-90811944D01*
X201627976Y-90811944D02*
X201866071Y-90811944D01*
X201866071Y-90811944D02*
X201961309Y-90867582D01*
X201961309Y-90867582D02*
X202008928Y-90923221D01*
X202008928Y-90923221D02*
X202056547Y-91034497D01*
X202056547Y-91034497D02*
X202056547Y-91312687D01*
X202056547Y-91312687D02*
X202008928Y-91423963D01*
X202008928Y-91423963D02*
X201961309Y-91479602D01*
X201961309Y-91479602D02*
X201866071Y-91535240D01*
X201866071Y-91535240D02*
X201627976Y-91535240D01*
X201627976Y-91535240D02*
X201532738Y-91479602D01*
X201532738Y-91479602D02*
X201485119Y-91423963D01*
X165904761Y-91535240D02*
X165428571Y-91535240D01*
X165428571Y-91535240D02*
X165428571Y-90366840D01*
X166238095Y-90923221D02*
X166571428Y-90923221D01*
X166714285Y-91535240D02*
X166238095Y-91535240D01*
X166238095Y-91535240D02*
X166238095Y-90366840D01*
X166238095Y-90366840D02*
X166714285Y-90366840D01*
X167142857Y-91535240D02*
X167142857Y-90366840D01*
X167142857Y-90366840D02*
X167380952Y-90366840D01*
X167380952Y-90366840D02*
X167523809Y-90422478D01*
X167523809Y-90422478D02*
X167619047Y-90533754D01*
X167619047Y-90533754D02*
X167666666Y-90645030D01*
X167666666Y-90645030D02*
X167714285Y-90867582D01*
X167714285Y-90867582D02*
X167714285Y-91034497D01*
X167714285Y-91034497D02*
X167666666Y-91257049D01*
X167666666Y-91257049D02*
X167619047Y-91368325D01*
X167619047Y-91368325D02*
X167523809Y-91479602D01*
X167523809Y-91479602D02*
X167380952Y-91535240D01*
X167380952Y-91535240D02*
X167142857Y-91535240D01*
X168666666Y-91535240D02*
X168095238Y-91535240D01*
X168380952Y-91535240D02*
X168380952Y-90366840D01*
X168380952Y-90366840D02*
X168285714Y-90533754D01*
X168285714Y-90533754D02*
X168190476Y-90645030D01*
X168190476Y-90645030D02*
X168095238Y-90700668D01*
X169047619Y-90478116D02*
X169095238Y-90422478D01*
X169095238Y-90422478D02*
X169190476Y-90366840D01*
X169190476Y-90366840D02*
X169428571Y-90366840D01*
X169428571Y-90366840D02*
X169523809Y-90422478D01*
X169523809Y-90422478D02*
X169571428Y-90478116D01*
X169571428Y-90478116D02*
X169619047Y-90589392D01*
X169619047Y-90589392D02*
X169619047Y-90700668D01*
X169619047Y-90700668D02*
X169571428Y-90867582D01*
X169571428Y-90867582D02*
X169000000Y-91535240D01*
X169000000Y-91535240D02*
X169619047Y-91535240D01*
X58067504Y-91535240D02*
X57511123Y-91535240D01*
X57511123Y-91535240D02*
X57511123Y-90366840D01*
X58456971Y-90923221D02*
X58846438Y-90923221D01*
X59013352Y-91535240D02*
X58456971Y-91535240D01*
X58456971Y-91535240D02*
X58456971Y-90366840D01*
X58456971Y-90366840D02*
X59013352Y-90366840D01*
X59514095Y-91535240D02*
X59514095Y-90366840D01*
X59514095Y-90366840D02*
X59792285Y-90366840D01*
X59792285Y-90366840D02*
X59959200Y-90422478D01*
X59959200Y-90422478D02*
X60070476Y-90533754D01*
X60070476Y-90533754D02*
X60126114Y-90645030D01*
X60126114Y-90645030D02*
X60181752Y-90867582D01*
X60181752Y-90867582D02*
X60181752Y-91034497D01*
X60181752Y-91034497D02*
X60126114Y-91257049D01*
X60126114Y-91257049D02*
X60070476Y-91368325D01*
X60070476Y-91368325D02*
X59959200Y-91479602D01*
X59959200Y-91479602D02*
X59792285Y-91535240D01*
X59792285Y-91535240D02*
X59514095Y-91535240D01*
X60626857Y-90478116D02*
X60682495Y-90422478D01*
X60682495Y-90422478D02*
X60793771Y-90366840D01*
X60793771Y-90366840D02*
X61071962Y-90366840D01*
X61071962Y-90366840D02*
X61183238Y-90422478D01*
X61183238Y-90422478D02*
X61238876Y-90478116D01*
X61238876Y-90478116D02*
X61294514Y-90589392D01*
X61294514Y-90589392D02*
X61294514Y-90700668D01*
X61294514Y-90700668D02*
X61238876Y-90867582D01*
X61238876Y-90867582D02*
X60571219Y-91535240D01*
X60571219Y-91535240D02*
X61294514Y-91535240D01*
X122942504Y-91535240D02*
X122386123Y-91535240D01*
X122386123Y-91535240D02*
X122386123Y-90366840D01*
X123331971Y-90923221D02*
X123721438Y-90923221D01*
X123888352Y-91535240D02*
X123331971Y-91535240D01*
X123331971Y-91535240D02*
X123331971Y-90366840D01*
X123331971Y-90366840D02*
X123888352Y-90366840D01*
X124389095Y-91535240D02*
X124389095Y-90366840D01*
X124389095Y-90366840D02*
X124667285Y-90366840D01*
X124667285Y-90366840D02*
X124834200Y-90422478D01*
X124834200Y-90422478D02*
X124945476Y-90533754D01*
X124945476Y-90533754D02*
X125001114Y-90645030D01*
X125001114Y-90645030D02*
X125056752Y-90867582D01*
X125056752Y-90867582D02*
X125056752Y-91034497D01*
X125056752Y-91034497D02*
X125001114Y-91257049D01*
X125001114Y-91257049D02*
X124945476Y-91368325D01*
X124945476Y-91368325D02*
X124834200Y-91479602D01*
X124834200Y-91479602D02*
X124667285Y-91535240D01*
X124667285Y-91535240D02*
X124389095Y-91535240D01*
X125724409Y-90867582D02*
X125613133Y-90811944D01*
X125613133Y-90811944D02*
X125557495Y-90756306D01*
X125557495Y-90756306D02*
X125501857Y-90645030D01*
X125501857Y-90645030D02*
X125501857Y-90589392D01*
X125501857Y-90589392D02*
X125557495Y-90478116D01*
X125557495Y-90478116D02*
X125613133Y-90422478D01*
X125613133Y-90422478D02*
X125724409Y-90366840D01*
X125724409Y-90366840D02*
X125946962Y-90366840D01*
X125946962Y-90366840D02*
X126058238Y-90422478D01*
X126058238Y-90422478D02*
X126113876Y-90478116D01*
X126113876Y-90478116D02*
X126169514Y-90589392D01*
X126169514Y-90589392D02*
X126169514Y-90645030D01*
X126169514Y-90645030D02*
X126113876Y-90756306D01*
X126113876Y-90756306D02*
X126058238Y-90811944D01*
X126058238Y-90811944D02*
X125946962Y-90867582D01*
X125946962Y-90867582D02*
X125724409Y-90867582D01*
X125724409Y-90867582D02*
X125613133Y-90923221D01*
X125613133Y-90923221D02*
X125557495Y-90978859D01*
X125557495Y-90978859D02*
X125501857Y-91090135D01*
X125501857Y-91090135D02*
X125501857Y-91312687D01*
X125501857Y-91312687D02*
X125557495Y-91423963D01*
X125557495Y-91423963D02*
X125613133Y-91479602D01*
X125613133Y-91479602D02*
X125724409Y-91535240D01*
X125724409Y-91535240D02*
X125946962Y-91535240D01*
X125946962Y-91535240D02*
X126058238Y-91479602D01*
X126058238Y-91479602D02*
X126113876Y-91423963D01*
X126113876Y-91423963D02*
X126169514Y-91312687D01*
X126169514Y-91312687D02*
X126169514Y-91090135D01*
X126169514Y-91090135D02*
X126113876Y-90978859D01*
X126113876Y-90978859D02*
X126058238Y-90923221D01*
X126058238Y-90923221D02*
X125946962Y-90867582D01*
X90505004Y-91535240D02*
X89948623Y-91535240D01*
X89948623Y-91535240D02*
X89948623Y-90366840D01*
X90894471Y-90923221D02*
X91283938Y-90923221D01*
X91450852Y-91535240D02*
X90894471Y-91535240D01*
X90894471Y-91535240D02*
X90894471Y-90366840D01*
X90894471Y-90366840D02*
X91450852Y-90366840D01*
X91951595Y-91535240D02*
X91951595Y-90366840D01*
X91951595Y-90366840D02*
X92229785Y-90366840D01*
X92229785Y-90366840D02*
X92396700Y-90422478D01*
X92396700Y-90422478D02*
X92507976Y-90533754D01*
X92507976Y-90533754D02*
X92563614Y-90645030D01*
X92563614Y-90645030D02*
X92619252Y-90867582D01*
X92619252Y-90867582D02*
X92619252Y-91034497D01*
X92619252Y-91034497D02*
X92563614Y-91257049D01*
X92563614Y-91257049D02*
X92507976Y-91368325D01*
X92507976Y-91368325D02*
X92396700Y-91479602D01*
X92396700Y-91479602D02*
X92229785Y-91535240D01*
X92229785Y-91535240D02*
X91951595Y-91535240D01*
X93676376Y-90366840D02*
X93119995Y-90366840D01*
X93119995Y-90366840D02*
X93064357Y-90923221D01*
X93064357Y-90923221D02*
X93119995Y-90867582D01*
X93119995Y-90867582D02*
X93231271Y-90811944D01*
X93231271Y-90811944D02*
X93509462Y-90811944D01*
X93509462Y-90811944D02*
X93620738Y-90867582D01*
X93620738Y-90867582D02*
X93676376Y-90923221D01*
X93676376Y-90923221D02*
X93732014Y-91034497D01*
X93732014Y-91034497D02*
X93732014Y-91312687D01*
X93732014Y-91312687D02*
X93676376Y-91423963D01*
X93676376Y-91423963D02*
X93620738Y-91479602D01*
X93620738Y-91479602D02*
X93509462Y-91535240D01*
X93509462Y-91535240D02*
X93231271Y-91535240D01*
X93231271Y-91535240D02*
X93119995Y-91479602D01*
X93119995Y-91479602D02*
X93064357Y-91423963D01*
X133755004Y-91535240D02*
X133198623Y-91535240D01*
X133198623Y-91535240D02*
X133198623Y-90366840D01*
X134144471Y-90923221D02*
X134533938Y-90923221D01*
X134700852Y-91535240D02*
X134144471Y-91535240D01*
X134144471Y-91535240D02*
X134144471Y-90366840D01*
X134144471Y-90366840D02*
X134700852Y-90366840D01*
X135201595Y-91535240D02*
X135201595Y-90366840D01*
X135201595Y-90366840D02*
X135479785Y-90366840D01*
X135479785Y-90366840D02*
X135646700Y-90422478D01*
X135646700Y-90422478D02*
X135757976Y-90533754D01*
X135757976Y-90533754D02*
X135813614Y-90645030D01*
X135813614Y-90645030D02*
X135869252Y-90867582D01*
X135869252Y-90867582D02*
X135869252Y-91034497D01*
X135869252Y-91034497D02*
X135813614Y-91257049D01*
X135813614Y-91257049D02*
X135757976Y-91368325D01*
X135757976Y-91368325D02*
X135646700Y-91479602D01*
X135646700Y-91479602D02*
X135479785Y-91535240D01*
X135479785Y-91535240D02*
X135201595Y-91535240D01*
X136425633Y-91535240D02*
X136648185Y-91535240D01*
X136648185Y-91535240D02*
X136759462Y-91479602D01*
X136759462Y-91479602D02*
X136815100Y-91423963D01*
X136815100Y-91423963D02*
X136926376Y-91257049D01*
X136926376Y-91257049D02*
X136982014Y-91034497D01*
X136982014Y-91034497D02*
X136982014Y-90589392D01*
X136982014Y-90589392D02*
X136926376Y-90478116D01*
X136926376Y-90478116D02*
X136870738Y-90422478D01*
X136870738Y-90422478D02*
X136759462Y-90366840D01*
X136759462Y-90366840D02*
X136536909Y-90366840D01*
X136536909Y-90366840D02*
X136425633Y-90422478D01*
X136425633Y-90422478D02*
X136369995Y-90478116D01*
X136369995Y-90478116D02*
X136314357Y-90589392D01*
X136314357Y-90589392D02*
X136314357Y-90867582D01*
X136314357Y-90867582D02*
X136369995Y-90978859D01*
X136369995Y-90978859D02*
X136425633Y-91034497D01*
X136425633Y-91034497D02*
X136536909Y-91090135D01*
X136536909Y-91090135D02*
X136759462Y-91090135D01*
X136759462Y-91090135D02*
X136870738Y-91034497D01*
X136870738Y-91034497D02*
X136926376Y-90978859D01*
X136926376Y-90978859D02*
X136982014Y-90867582D01*
X79692504Y-91535240D02*
X79136123Y-91535240D01*
X79136123Y-91535240D02*
X79136123Y-90366840D01*
X80081971Y-90923221D02*
X80471438Y-90923221D01*
X80638352Y-91535240D02*
X80081971Y-91535240D01*
X80081971Y-91535240D02*
X80081971Y-90366840D01*
X80081971Y-90366840D02*
X80638352Y-90366840D01*
X81139095Y-91535240D02*
X81139095Y-90366840D01*
X81139095Y-90366840D02*
X81417285Y-90366840D01*
X81417285Y-90366840D02*
X81584200Y-90422478D01*
X81584200Y-90422478D02*
X81695476Y-90533754D01*
X81695476Y-90533754D02*
X81751114Y-90645030D01*
X81751114Y-90645030D02*
X81806752Y-90867582D01*
X81806752Y-90867582D02*
X81806752Y-91034497D01*
X81806752Y-91034497D02*
X81751114Y-91257049D01*
X81751114Y-91257049D02*
X81695476Y-91368325D01*
X81695476Y-91368325D02*
X81584200Y-91479602D01*
X81584200Y-91479602D02*
X81417285Y-91535240D01*
X81417285Y-91535240D02*
X81139095Y-91535240D01*
X82808238Y-90756306D02*
X82808238Y-91535240D01*
X82530047Y-90311202D02*
X82251857Y-91145773D01*
X82251857Y-91145773D02*
X82975152Y-91145773D01*
X244110533Y-82866840D02*
X244110533Y-83701411D01*
X244110533Y-83701411D02*
X244054894Y-83868325D01*
X244054894Y-83868325D02*
X243943618Y-83979602D01*
X243943618Y-83979602D02*
X243776704Y-84035240D01*
X243776704Y-84035240D02*
X243665428Y-84035240D01*
X245278933Y-84035240D02*
X244611276Y-84035240D01*
X244945104Y-84035240D02*
X244945104Y-82866840D01*
X244945104Y-82866840D02*
X244833828Y-83033754D01*
X244833828Y-83033754D02*
X244722552Y-83145030D01*
X244722552Y-83145030D02*
X244611276Y-83200668D01*
X233404656Y-97423221D02*
X233571570Y-97478859D01*
X233571570Y-97478859D02*
X233627208Y-97534497D01*
X233627208Y-97534497D02*
X233682846Y-97645773D01*
X233682846Y-97645773D02*
X233682846Y-97812687D01*
X233682846Y-97812687D02*
X233627208Y-97923963D01*
X233627208Y-97923963D02*
X233571570Y-97979602D01*
X233571570Y-97979602D02*
X233460294Y-98035240D01*
X233460294Y-98035240D02*
X233015189Y-98035240D01*
X233015189Y-98035240D02*
X233015189Y-96866840D01*
X233015189Y-96866840D02*
X233404656Y-96866840D01*
X233404656Y-96866840D02*
X233515932Y-96922478D01*
X233515932Y-96922478D02*
X233571570Y-96978116D01*
X233571570Y-96978116D02*
X233627208Y-97089392D01*
X233627208Y-97089392D02*
X233627208Y-97200668D01*
X233627208Y-97200668D02*
X233571570Y-97311944D01*
X233571570Y-97311944D02*
X233515932Y-97367582D01*
X233515932Y-97367582D02*
X233404656Y-97423221D01*
X233404656Y-97423221D02*
X233015189Y-97423221D01*
X234072313Y-96866840D02*
X234795608Y-96866840D01*
X234795608Y-96866840D02*
X234406141Y-97311944D01*
X234406141Y-97311944D02*
X234573056Y-97311944D01*
X234573056Y-97311944D02*
X234684332Y-97367582D01*
X234684332Y-97367582D02*
X234739970Y-97423221D01*
X234739970Y-97423221D02*
X234795608Y-97534497D01*
X234795608Y-97534497D02*
X234795608Y-97812687D01*
X234795608Y-97812687D02*
X234739970Y-97923963D01*
X234739970Y-97923963D02*
X234684332Y-97979602D01*
X234684332Y-97979602D02*
X234573056Y-98035240D01*
X234573056Y-98035240D02*
X234239227Y-98035240D01*
X234239227Y-98035240D02*
X234127951Y-97979602D01*
X234127951Y-97979602D02*
X234072313Y-97923963D01*
X235685818Y-97423221D02*
X235852732Y-97478859D01*
X235852732Y-97478859D02*
X235908370Y-97534497D01*
X235908370Y-97534497D02*
X235964008Y-97645773D01*
X235964008Y-97645773D02*
X235964008Y-97812687D01*
X235964008Y-97812687D02*
X235908370Y-97923963D01*
X235908370Y-97923963D02*
X235852732Y-97979602D01*
X235852732Y-97979602D02*
X235741456Y-98035240D01*
X235741456Y-98035240D02*
X235296351Y-98035240D01*
X235296351Y-98035240D02*
X235296351Y-96866840D01*
X235296351Y-96866840D02*
X235685818Y-96866840D01*
X235685818Y-96866840D02*
X235797094Y-96922478D01*
X235797094Y-96922478D02*
X235852732Y-96978116D01*
X235852732Y-96978116D02*
X235908370Y-97089392D01*
X235908370Y-97089392D02*
X235908370Y-97200668D01*
X235908370Y-97200668D02*
X235852732Y-97311944D01*
X235852732Y-97311944D02*
X235797094Y-97367582D01*
X235797094Y-97367582D02*
X235685818Y-97423221D01*
X235685818Y-97423221D02*
X235296351Y-97423221D01*
X236464751Y-97590135D02*
X237354961Y-97590135D01*
X237800065Y-96866840D02*
X238578998Y-98035240D01*
X238578998Y-96866840D02*
X237800065Y-98035240D01*
X239024103Y-98035240D02*
X239024103Y-96866840D01*
X239024103Y-97423221D02*
X239691760Y-97423221D01*
X239691760Y-98035240D02*
X239691760Y-96866840D01*
X240248141Y-97590135D02*
X241138351Y-97590135D01*
X241639093Y-97701411D02*
X242195474Y-97701411D01*
X241527817Y-98035240D02*
X241917283Y-96866840D01*
X241917283Y-96866840D02*
X242306750Y-98035240D01*
X242418027Y-98146516D02*
X243308236Y-98146516D01*
X244142808Y-98035240D02*
X243586427Y-98035240D01*
X243586427Y-98035240D02*
X243586427Y-96866840D01*
X244921742Y-97423221D02*
X244532275Y-97423221D01*
X244532275Y-98035240D02*
X244532275Y-96866840D01*
X244532275Y-96866840D02*
X245088656Y-96866840D01*
X245255571Y-98146516D02*
X246145780Y-98146516D01*
X246145781Y-98146516D02*
X247035990Y-98146516D01*
X247258543Y-97979602D02*
X247425457Y-98035240D01*
X247425457Y-98035240D02*
X247703648Y-98035240D01*
X247703648Y-98035240D02*
X247814924Y-97979602D01*
X247814924Y-97979602D02*
X247870562Y-97923963D01*
X247870562Y-97923963D02*
X247926200Y-97812687D01*
X247926200Y-97812687D02*
X247926200Y-97701411D01*
X247926200Y-97701411D02*
X247870562Y-97590135D01*
X247870562Y-97590135D02*
X247814924Y-97534497D01*
X247814924Y-97534497D02*
X247703648Y-97478859D01*
X247703648Y-97478859D02*
X247481095Y-97423221D01*
X247481095Y-97423221D02*
X247369819Y-97367582D01*
X247369819Y-97367582D02*
X247314181Y-97311944D01*
X247314181Y-97311944D02*
X247258543Y-97200668D01*
X247258543Y-97200668D02*
X247258543Y-97089392D01*
X247258543Y-97089392D02*
X247314181Y-96978116D01*
X247314181Y-96978116D02*
X247369819Y-96922478D01*
X247369819Y-96922478D02*
X247481095Y-96866840D01*
X247481095Y-96866840D02*
X247759286Y-96866840D01*
X247759286Y-96866840D02*
X247926200Y-96922478D01*
X248426943Y-98035240D02*
X248426943Y-96866840D01*
X248426943Y-96866840D02*
X249094600Y-98035240D01*
X249094600Y-98035240D02*
X249094600Y-96866840D01*
X249372791Y-98146516D02*
X250263000Y-98146516D01*
X47255004Y-91535240D02*
X46698623Y-91535240D01*
X46698623Y-91535240D02*
X46698623Y-90366840D01*
X47644471Y-90923221D02*
X48033938Y-90923221D01*
X48200852Y-91535240D02*
X47644471Y-91535240D01*
X47644471Y-91535240D02*
X47644471Y-90366840D01*
X47644471Y-90366840D02*
X48200852Y-90366840D01*
X48701595Y-91535240D02*
X48701595Y-90366840D01*
X48701595Y-90366840D02*
X48979785Y-90366840D01*
X48979785Y-90366840D02*
X49146700Y-90422478D01*
X49146700Y-90422478D02*
X49257976Y-90533754D01*
X49257976Y-90533754D02*
X49313614Y-90645030D01*
X49313614Y-90645030D02*
X49369252Y-90867582D01*
X49369252Y-90867582D02*
X49369252Y-91034497D01*
X49369252Y-91034497D02*
X49313614Y-91257049D01*
X49313614Y-91257049D02*
X49257976Y-91368325D01*
X49257976Y-91368325D02*
X49146700Y-91479602D01*
X49146700Y-91479602D02*
X48979785Y-91535240D01*
X48979785Y-91535240D02*
X48701595Y-91535240D01*
X50482014Y-91535240D02*
X49814357Y-91535240D01*
X50148185Y-91535240D02*
X50148185Y-90366840D01*
X50148185Y-90366840D02*
X50036909Y-90533754D01*
X50036909Y-90533754D02*
X49925633Y-90645030D01*
X49925633Y-90645030D02*
X49814357Y-90700668D01*
X187529761Y-91535240D02*
X187053571Y-91535240D01*
X187053571Y-91535240D02*
X187053571Y-90366840D01*
X187863095Y-90923221D02*
X188196428Y-90923221D01*
X188339285Y-91535240D02*
X187863095Y-91535240D01*
X187863095Y-91535240D02*
X187863095Y-90366840D01*
X187863095Y-90366840D02*
X188339285Y-90366840D01*
X188767857Y-91535240D02*
X188767857Y-90366840D01*
X188767857Y-90366840D02*
X189005952Y-90366840D01*
X189005952Y-90366840D02*
X189148809Y-90422478D01*
X189148809Y-90422478D02*
X189244047Y-90533754D01*
X189244047Y-90533754D02*
X189291666Y-90645030D01*
X189291666Y-90645030D02*
X189339285Y-90867582D01*
X189339285Y-90867582D02*
X189339285Y-91034497D01*
X189339285Y-91034497D02*
X189291666Y-91257049D01*
X189291666Y-91257049D02*
X189244047Y-91368325D01*
X189244047Y-91368325D02*
X189148809Y-91479602D01*
X189148809Y-91479602D02*
X189005952Y-91535240D01*
X189005952Y-91535240D02*
X188767857Y-91535240D01*
X190291666Y-91535240D02*
X189720238Y-91535240D01*
X190005952Y-91535240D02*
X190005952Y-90366840D01*
X190005952Y-90366840D02*
X189910714Y-90533754D01*
X189910714Y-90533754D02*
X189815476Y-90645030D01*
X189815476Y-90645030D02*
X189720238Y-90700668D01*
X191148809Y-90756306D02*
X191148809Y-91535240D01*
X190910714Y-90311202D02*
X190672619Y-91145773D01*
X190672619Y-91145773D02*
X191291666Y-91145773D01*
X209154761Y-91535240D02*
X208678571Y-91535240D01*
X208678571Y-91535240D02*
X208678571Y-90366840D01*
X209488095Y-90923221D02*
X209821428Y-90923221D01*
X209964285Y-91535240D02*
X209488095Y-91535240D01*
X209488095Y-91535240D02*
X209488095Y-90366840D01*
X209488095Y-90366840D02*
X209964285Y-90366840D01*
X210392857Y-91535240D02*
X210392857Y-90366840D01*
X210392857Y-90366840D02*
X210630952Y-90366840D01*
X210630952Y-90366840D02*
X210773809Y-90422478D01*
X210773809Y-90422478D02*
X210869047Y-90533754D01*
X210869047Y-90533754D02*
X210916666Y-90645030D01*
X210916666Y-90645030D02*
X210964285Y-90867582D01*
X210964285Y-90867582D02*
X210964285Y-91034497D01*
X210964285Y-91034497D02*
X210916666Y-91257049D01*
X210916666Y-91257049D02*
X210869047Y-91368325D01*
X210869047Y-91368325D02*
X210773809Y-91479602D01*
X210773809Y-91479602D02*
X210630952Y-91535240D01*
X210630952Y-91535240D02*
X210392857Y-91535240D01*
X211916666Y-91535240D02*
X211345238Y-91535240D01*
X211630952Y-91535240D02*
X211630952Y-90366840D01*
X211630952Y-90366840D02*
X211535714Y-90533754D01*
X211535714Y-90533754D02*
X211440476Y-90645030D01*
X211440476Y-90645030D02*
X211345238Y-90700668D01*
X212773809Y-90366840D02*
X212583333Y-90366840D01*
X212583333Y-90366840D02*
X212488095Y-90422478D01*
X212488095Y-90422478D02*
X212440476Y-90478116D01*
X212440476Y-90478116D02*
X212345238Y-90645030D01*
X212345238Y-90645030D02*
X212297619Y-90867582D01*
X212297619Y-90867582D02*
X212297619Y-91312687D01*
X212297619Y-91312687D02*
X212345238Y-91423963D01*
X212345238Y-91423963D02*
X212392857Y-91479602D01*
X212392857Y-91479602D02*
X212488095Y-91535240D01*
X212488095Y-91535240D02*
X212678571Y-91535240D01*
X212678571Y-91535240D02*
X212773809Y-91479602D01*
X212773809Y-91479602D02*
X212821428Y-91423963D01*
X212821428Y-91423963D02*
X212869047Y-91312687D01*
X212869047Y-91312687D02*
X212869047Y-91034497D01*
X212869047Y-91034497D02*
X212821428Y-90923221D01*
X212821428Y-90923221D02*
X212773809Y-90867582D01*
X212773809Y-90867582D02*
X212678571Y-90811944D01*
X212678571Y-90811944D02*
X212488095Y-90811944D01*
X212488095Y-90811944D02*
X212392857Y-90867582D01*
X212392857Y-90867582D02*
X212345238Y-90923221D01*
X212345238Y-90923221D02*
X212297619Y-91034497D01*
X68880004Y-91535240D02*
X68323623Y-91535240D01*
X68323623Y-91535240D02*
X68323623Y-90366840D01*
X69269471Y-90923221D02*
X69658938Y-90923221D01*
X69825852Y-91535240D02*
X69269471Y-91535240D01*
X69269471Y-91535240D02*
X69269471Y-90366840D01*
X69269471Y-90366840D02*
X69825852Y-90366840D01*
X70326595Y-91535240D02*
X70326595Y-90366840D01*
X70326595Y-90366840D02*
X70604785Y-90366840D01*
X70604785Y-90366840D02*
X70771700Y-90422478D01*
X70771700Y-90422478D02*
X70882976Y-90533754D01*
X70882976Y-90533754D02*
X70938614Y-90645030D01*
X70938614Y-90645030D02*
X70994252Y-90867582D01*
X70994252Y-90867582D02*
X70994252Y-91034497D01*
X70994252Y-91034497D02*
X70938614Y-91257049D01*
X70938614Y-91257049D02*
X70882976Y-91368325D01*
X70882976Y-91368325D02*
X70771700Y-91479602D01*
X70771700Y-91479602D02*
X70604785Y-91535240D01*
X70604785Y-91535240D02*
X70326595Y-91535240D01*
X71383719Y-90366840D02*
X72107014Y-90366840D01*
X72107014Y-90366840D02*
X71717547Y-90811944D01*
X71717547Y-90811944D02*
X71884462Y-90811944D01*
X71884462Y-90811944D02*
X71995738Y-90867582D01*
X71995738Y-90867582D02*
X72051376Y-90923221D01*
X72051376Y-90923221D02*
X72107014Y-91034497D01*
X72107014Y-91034497D02*
X72107014Y-91312687D01*
X72107014Y-91312687D02*
X72051376Y-91423963D01*
X72051376Y-91423963D02*
X71995738Y-91479602D01*
X71995738Y-91479602D02*
X71884462Y-91535240D01*
X71884462Y-91535240D02*
X71550633Y-91535240D01*
X71550633Y-91535240D02*
X71439357Y-91479602D01*
X71439357Y-91479602D02*
X71383719Y-91423963D01*
X176717261Y-91535240D02*
X176241071Y-91535240D01*
X176241071Y-91535240D02*
X176241071Y-90366840D01*
X177050595Y-90923221D02*
X177383928Y-90923221D01*
X177526785Y-91535240D02*
X177050595Y-91535240D01*
X177050595Y-91535240D02*
X177050595Y-90366840D01*
X177050595Y-90366840D02*
X177526785Y-90366840D01*
X177955357Y-91535240D02*
X177955357Y-90366840D01*
X177955357Y-90366840D02*
X178193452Y-90366840D01*
X178193452Y-90366840D02*
X178336309Y-90422478D01*
X178336309Y-90422478D02*
X178431547Y-90533754D01*
X178431547Y-90533754D02*
X178479166Y-90645030D01*
X178479166Y-90645030D02*
X178526785Y-90867582D01*
X178526785Y-90867582D02*
X178526785Y-91034497D01*
X178526785Y-91034497D02*
X178479166Y-91257049D01*
X178479166Y-91257049D02*
X178431547Y-91368325D01*
X178431547Y-91368325D02*
X178336309Y-91479602D01*
X178336309Y-91479602D02*
X178193452Y-91535240D01*
X178193452Y-91535240D02*
X177955357Y-91535240D01*
X179479166Y-91535240D02*
X178907738Y-91535240D01*
X179193452Y-91535240D02*
X179193452Y-90366840D01*
X179193452Y-90366840D02*
X179098214Y-90533754D01*
X179098214Y-90533754D02*
X179002976Y-90645030D01*
X179002976Y-90645030D02*
X178907738Y-90700668D01*
X179812500Y-90366840D02*
X180431547Y-90366840D01*
X180431547Y-90366840D02*
X180098214Y-90811944D01*
X180098214Y-90811944D02*
X180241071Y-90811944D01*
X180241071Y-90811944D02*
X180336309Y-90867582D01*
X180336309Y-90867582D02*
X180383928Y-90923221D01*
X180383928Y-90923221D02*
X180431547Y-91034497D01*
X180431547Y-91034497D02*
X180431547Y-91312687D01*
X180431547Y-91312687D02*
X180383928Y-91423963D01*
X180383928Y-91423963D02*
X180336309Y-91479602D01*
X180336309Y-91479602D02*
X180241071Y-91535240D01*
X180241071Y-91535240D02*
X179955357Y-91535240D01*
X179955357Y-91535240D02*
X179860119Y-91479602D01*
X179860119Y-91479602D02*
X179812500Y-91423963D01*
X219967261Y-91535240D02*
X219491071Y-91535240D01*
X219491071Y-91535240D02*
X219491071Y-90366840D01*
X220300595Y-90923221D02*
X220633928Y-90923221D01*
X220776785Y-91535240D02*
X220300595Y-91535240D01*
X220300595Y-91535240D02*
X220300595Y-90366840D01*
X220300595Y-90366840D02*
X220776785Y-90366840D01*
X221205357Y-91535240D02*
X221205357Y-90366840D01*
X221205357Y-90366840D02*
X221443452Y-90366840D01*
X221443452Y-90366840D02*
X221586309Y-90422478D01*
X221586309Y-90422478D02*
X221681547Y-90533754D01*
X221681547Y-90533754D02*
X221729166Y-90645030D01*
X221729166Y-90645030D02*
X221776785Y-90867582D01*
X221776785Y-90867582D02*
X221776785Y-91034497D01*
X221776785Y-91034497D02*
X221729166Y-91257049D01*
X221729166Y-91257049D02*
X221681547Y-91368325D01*
X221681547Y-91368325D02*
X221586309Y-91479602D01*
X221586309Y-91479602D02*
X221443452Y-91535240D01*
X221443452Y-91535240D02*
X221205357Y-91535240D01*
X222729166Y-91535240D02*
X222157738Y-91535240D01*
X222443452Y-91535240D02*
X222443452Y-90366840D01*
X222443452Y-90366840D02*
X222348214Y-90533754D01*
X222348214Y-90533754D02*
X222252976Y-90645030D01*
X222252976Y-90645030D02*
X222157738Y-90700668D01*
X223062500Y-90366840D02*
X223729166Y-90366840D01*
X223729166Y-90366840D02*
X223300595Y-91535240D01*
X144279761Y-91535240D02*
X143803571Y-91535240D01*
X143803571Y-91535240D02*
X143803571Y-90366840D01*
X144613095Y-90923221D02*
X144946428Y-90923221D01*
X145089285Y-91535240D02*
X144613095Y-91535240D01*
X144613095Y-91535240D02*
X144613095Y-90366840D01*
X144613095Y-90366840D02*
X145089285Y-90366840D01*
X145517857Y-91535240D02*
X145517857Y-90366840D01*
X145517857Y-90366840D02*
X145755952Y-90366840D01*
X145755952Y-90366840D02*
X145898809Y-90422478D01*
X145898809Y-90422478D02*
X145994047Y-90533754D01*
X145994047Y-90533754D02*
X146041666Y-90645030D01*
X146041666Y-90645030D02*
X146089285Y-90867582D01*
X146089285Y-90867582D02*
X146089285Y-91034497D01*
X146089285Y-91034497D02*
X146041666Y-91257049D01*
X146041666Y-91257049D02*
X145994047Y-91368325D01*
X145994047Y-91368325D02*
X145898809Y-91479602D01*
X145898809Y-91479602D02*
X145755952Y-91535240D01*
X145755952Y-91535240D02*
X145517857Y-91535240D01*
X147041666Y-91535240D02*
X146470238Y-91535240D01*
X146755952Y-91535240D02*
X146755952Y-90366840D01*
X146755952Y-90366840D02*
X146660714Y-90533754D01*
X146660714Y-90533754D02*
X146565476Y-90645030D01*
X146565476Y-90645030D02*
X146470238Y-90700668D01*
X147660714Y-90366840D02*
X147755952Y-90366840D01*
X147755952Y-90366840D02*
X147851190Y-90422478D01*
X147851190Y-90422478D02*
X147898809Y-90478116D01*
X147898809Y-90478116D02*
X147946428Y-90589392D01*
X147946428Y-90589392D02*
X147994047Y-90811944D01*
X147994047Y-90811944D02*
X147994047Y-91090135D01*
X147994047Y-91090135D02*
X147946428Y-91312687D01*
X147946428Y-91312687D02*
X147898809Y-91423963D01*
X147898809Y-91423963D02*
X147851190Y-91479602D01*
X147851190Y-91479602D02*
X147755952Y-91535240D01*
X147755952Y-91535240D02*
X147660714Y-91535240D01*
X147660714Y-91535240D02*
X147565476Y-91479602D01*
X147565476Y-91479602D02*
X147517857Y-91423963D01*
X147517857Y-91423963D02*
X147470238Y-91312687D01*
X147470238Y-91312687D02*
X147422619Y-91090135D01*
X147422619Y-91090135D02*
X147422619Y-90811944D01*
X147422619Y-90811944D02*
X147470238Y-90589392D01*
X147470238Y-90589392D02*
X147517857Y-90478116D01*
X147517857Y-90478116D02*
X147565476Y-90422478D01*
X147565476Y-90422478D02*
X147660714Y-90366840D01*
X155092261Y-91535240D02*
X154616071Y-91535240D01*
X154616071Y-91535240D02*
X154616071Y-90366840D01*
X155425595Y-90923221D02*
X155758928Y-90923221D01*
X155901785Y-91535240D02*
X155425595Y-91535240D01*
X155425595Y-91535240D02*
X155425595Y-90366840D01*
X155425595Y-90366840D02*
X155901785Y-90366840D01*
X156330357Y-91535240D02*
X156330357Y-90366840D01*
X156330357Y-90366840D02*
X156568452Y-90366840D01*
X156568452Y-90366840D02*
X156711309Y-90422478D01*
X156711309Y-90422478D02*
X156806547Y-90533754D01*
X156806547Y-90533754D02*
X156854166Y-90645030D01*
X156854166Y-90645030D02*
X156901785Y-90867582D01*
X156901785Y-90867582D02*
X156901785Y-91034497D01*
X156901785Y-91034497D02*
X156854166Y-91257049D01*
X156854166Y-91257049D02*
X156806547Y-91368325D01*
X156806547Y-91368325D02*
X156711309Y-91479602D01*
X156711309Y-91479602D02*
X156568452Y-91535240D01*
X156568452Y-91535240D02*
X156330357Y-91535240D01*
X157854166Y-91535240D02*
X157282738Y-91535240D01*
X157568452Y-91535240D02*
X157568452Y-90366840D01*
X157568452Y-90366840D02*
X157473214Y-90533754D01*
X157473214Y-90533754D02*
X157377976Y-90645030D01*
X157377976Y-90645030D02*
X157282738Y-90700668D01*
X158806547Y-91535240D02*
X158235119Y-91535240D01*
X158520833Y-91535240D02*
X158520833Y-90366840D01*
X158520833Y-90366840D02*
X158425595Y-90533754D01*
X158425595Y-90533754D02*
X158330357Y-90645030D01*
X158330357Y-90645030D02*
X158235119Y-90700668D01*
X112130004Y-91535240D02*
X111573623Y-91535240D01*
X111573623Y-91535240D02*
X111573623Y-90366840D01*
X112519471Y-90923221D02*
X112908938Y-90923221D01*
X113075852Y-91535240D02*
X112519471Y-91535240D01*
X112519471Y-91535240D02*
X112519471Y-90366840D01*
X112519471Y-90366840D02*
X113075852Y-90366840D01*
X113576595Y-91535240D02*
X113576595Y-90366840D01*
X113576595Y-90366840D02*
X113854785Y-90366840D01*
X113854785Y-90366840D02*
X114021700Y-90422478D01*
X114021700Y-90422478D02*
X114132976Y-90533754D01*
X114132976Y-90533754D02*
X114188614Y-90645030D01*
X114188614Y-90645030D02*
X114244252Y-90867582D01*
X114244252Y-90867582D02*
X114244252Y-91034497D01*
X114244252Y-91034497D02*
X114188614Y-91257049D01*
X114188614Y-91257049D02*
X114132976Y-91368325D01*
X114132976Y-91368325D02*
X114021700Y-91479602D01*
X114021700Y-91479602D02*
X113854785Y-91535240D01*
X113854785Y-91535240D02*
X113576595Y-91535240D01*
X114633719Y-90366840D02*
X115412652Y-90366840D01*
X115412652Y-90366840D02*
X114911909Y-91535240D01*
D13*
%TO.C,LED6*%
X98925000Y-89350000D02*
X98925000Y-89350000D01*
X98925000Y-89350000D02*
X98925000Y-89350000D01*
X99025000Y-89350000D02*
X99025000Y-89350000D01*
X100125000Y-90400000D02*
X100125000Y-91600000D01*
X101425000Y-88500000D02*
X103825000Y-88500000D01*
X101425000Y-93500000D02*
X103825000Y-93500000D01*
X105125000Y-90400000D02*
X105125000Y-91600000D01*
X98925000Y-89350000D02*
G75*
G02*
X99025000Y-89350000I50000J0D01*
G01*
X99025000Y-89350000D02*
G75*
G02*
X98925000Y-89350000I-50000J0D01*
G01*
X99025000Y-89350000D02*
G75*
G02*
X98925000Y-89350000I-50000J0D01*
G01*
D14*
%TO.C,C1*%
X234500000Y-85471500D02*
X234500000Y-86741500D01*
X235135000Y-86106500D02*
X233865000Y-86106500D01*
X238881500Y-91250000D02*
G75*
G02*
X230118500Y-91250000I-4381500J0D01*
G01*
X230118500Y-91250000D02*
G75*
G02*
X238881500Y-91250000I4381500J0D01*
G01*
D13*
%TO.C,LED15*%
X196237500Y-89350000D02*
X196237500Y-89350000D01*
X196237500Y-89350000D02*
X196237500Y-89350000D01*
X196337500Y-89350000D02*
X196337500Y-89350000D01*
X197437500Y-90400000D02*
X197437500Y-91600000D01*
X198737500Y-88500000D02*
X201137500Y-88500000D01*
X198737500Y-93500000D02*
X201137500Y-93500000D01*
X202437500Y-90400000D02*
X202437500Y-91600000D01*
X196237500Y-89350000D02*
G75*
G02*
X196337500Y-89350000I50000J0D01*
G01*
X196337500Y-89350000D02*
G75*
G02*
X196237500Y-89350000I-50000J0D01*
G01*
X196337500Y-89350000D02*
G75*
G02*
X196237500Y-89350000I-50000J0D01*
G01*
%TO.C,LED12*%
X163800000Y-89350000D02*
X163800000Y-89350000D01*
X163800000Y-89350000D02*
X163800000Y-89350000D01*
X163900000Y-89350000D02*
X163900000Y-89350000D01*
X165000000Y-90400000D02*
X165000000Y-91600000D01*
X166300000Y-88500000D02*
X168700000Y-88500000D01*
X166300000Y-93500000D02*
X168700000Y-93500000D01*
X170000000Y-90400000D02*
X170000000Y-91600000D01*
X163800000Y-89350000D02*
G75*
G02*
X163900000Y-89350000I50000J0D01*
G01*
X163900000Y-89350000D02*
G75*
G02*
X163800000Y-89350000I-50000J0D01*
G01*
X163900000Y-89350000D02*
G75*
G02*
X163800000Y-89350000I-50000J0D01*
G01*
%TO.C,LED2*%
X55675000Y-89350000D02*
X55675000Y-89350000D01*
X55675000Y-89350000D02*
X55675000Y-89350000D01*
X55775000Y-89350000D02*
X55775000Y-89350000D01*
X56875000Y-90400000D02*
X56875000Y-91600000D01*
X58175000Y-88500000D02*
X60575000Y-88500000D01*
X58175000Y-93500000D02*
X60575000Y-93500000D01*
X61875000Y-90400000D02*
X61875000Y-91600000D01*
X55675000Y-89350000D02*
G75*
G02*
X55775000Y-89350000I50000J0D01*
G01*
X55775000Y-89350000D02*
G75*
G02*
X55675000Y-89350000I-50000J0D01*
G01*
X55775000Y-89350000D02*
G75*
G02*
X55675000Y-89350000I-50000J0D01*
G01*
%TO.C,LED8*%
X120550000Y-89350000D02*
X120550000Y-89350000D01*
X120550000Y-89350000D02*
X120550000Y-89350000D01*
X120650000Y-89350000D02*
X120650000Y-89350000D01*
X121750000Y-90400000D02*
X121750000Y-91600000D01*
X123050000Y-88500000D02*
X125450000Y-88500000D01*
X123050000Y-93500000D02*
X125450000Y-93500000D01*
X126750000Y-90400000D02*
X126750000Y-91600000D01*
X120550000Y-89350000D02*
G75*
G02*
X120650000Y-89350000I50000J0D01*
G01*
X120650000Y-89350000D02*
G75*
G02*
X120550000Y-89350000I-50000J0D01*
G01*
X120650000Y-89350000D02*
G75*
G02*
X120550000Y-89350000I-50000J0D01*
G01*
%TO.C,LED5*%
X88112500Y-89350000D02*
X88112500Y-89350000D01*
X88112500Y-89350000D02*
X88112500Y-89350000D01*
X88212500Y-89350000D02*
X88212500Y-89350000D01*
X89312500Y-90400000D02*
X89312500Y-91600000D01*
X90612500Y-88500000D02*
X93012500Y-88500000D01*
X90612500Y-93500000D02*
X93012500Y-93500000D01*
X94312500Y-90400000D02*
X94312500Y-91600000D01*
X88112500Y-89350000D02*
G75*
G02*
X88212500Y-89350000I50000J0D01*
G01*
X88212500Y-89350000D02*
G75*
G02*
X88112500Y-89350000I-50000J0D01*
G01*
X88212500Y-89350000D02*
G75*
G02*
X88112500Y-89350000I-50000J0D01*
G01*
%TO.C,LED9*%
X131362500Y-89350000D02*
X131362500Y-89350000D01*
X131362500Y-89350000D02*
X131362500Y-89350000D01*
X131462500Y-89350000D02*
X131462500Y-89350000D01*
X132562500Y-90400000D02*
X132562500Y-91600000D01*
X133862500Y-88500000D02*
X136262500Y-88500000D01*
X133862500Y-93500000D02*
X136262500Y-93500000D01*
X137562500Y-90400000D02*
X137562500Y-91600000D01*
X131362500Y-89350000D02*
G75*
G02*
X131462500Y-89350000I50000J0D01*
G01*
X131462500Y-89350000D02*
G75*
G02*
X131362500Y-89350000I-50000J0D01*
G01*
X131462500Y-89350000D02*
G75*
G02*
X131362500Y-89350000I-50000J0D01*
G01*
%TO.C,LED4*%
X77300000Y-89350000D02*
X77300000Y-89350000D01*
X77300000Y-89350000D02*
X77300000Y-89350000D01*
X77400000Y-89350000D02*
X77400000Y-89350000D01*
X78500000Y-90400000D02*
X78500000Y-91600000D01*
X79800000Y-88500000D02*
X82200000Y-88500000D01*
X79800000Y-93500000D02*
X82200000Y-93500000D01*
X83500000Y-90400000D02*
X83500000Y-91600000D01*
X77300000Y-89350000D02*
G75*
G02*
X77400000Y-89350000I50000J0D01*
G01*
X77400000Y-89350000D02*
G75*
G02*
X77300000Y-89350000I-50000J0D01*
G01*
X77400000Y-89350000D02*
G75*
G02*
X77300000Y-89350000I-50000J0D01*
G01*
%TO.C,J1*%
X243650000Y-85400000D02*
X243650000Y-95300000D01*
X243650000Y-95300000D02*
X249400000Y-95300000D01*
X246000000Y-84650000D02*
X246000000Y-84650000D01*
X246000000Y-84650000D02*
X246000000Y-84650000D01*
X246000000Y-84750000D02*
X246000000Y-84750000D01*
X249400000Y-85400000D02*
X243650000Y-85400000D01*
X249400000Y-95300000D02*
X249400000Y-85400000D01*
X246000000Y-84650000D02*
G75*
G02*
X246000000Y-84750000I0J-50000D01*
G01*
X246000000Y-84750000D02*
G75*
G02*
X246000000Y-84650000I0J50000D01*
G01*
X246000000Y-84750000D02*
G75*
G02*
X246000000Y-84650000I0J50000D01*
G01*
%TO.C,LED1*%
X44862500Y-89350000D02*
X44862500Y-89350000D01*
X44862500Y-89350000D02*
X44862500Y-89350000D01*
X44962500Y-89350000D02*
X44962500Y-89350000D01*
X46062500Y-90400000D02*
X46062500Y-91600000D01*
X47362500Y-88500000D02*
X49762500Y-88500000D01*
X47362500Y-93500000D02*
X49762500Y-93500000D01*
X51062500Y-90400000D02*
X51062500Y-91600000D01*
X44862500Y-89350000D02*
G75*
G02*
X44962500Y-89350000I50000J0D01*
G01*
X44962500Y-89350000D02*
G75*
G02*
X44862500Y-89350000I-50000J0D01*
G01*
X44962500Y-89350000D02*
G75*
G02*
X44862500Y-89350000I-50000J0D01*
G01*
%TO.C,LED14*%
X185425000Y-89350000D02*
X185425000Y-89350000D01*
X185425000Y-89350000D02*
X185425000Y-89350000D01*
X185525000Y-89350000D02*
X185525000Y-89350000D01*
X186625000Y-90400000D02*
X186625000Y-91600000D01*
X187925000Y-88500000D02*
X190325000Y-88500000D01*
X187925000Y-93500000D02*
X190325000Y-93500000D01*
X191625000Y-90400000D02*
X191625000Y-91600000D01*
X185425000Y-89350000D02*
G75*
G02*
X185525000Y-89350000I50000J0D01*
G01*
X185525000Y-89350000D02*
G75*
G02*
X185425000Y-89350000I-50000J0D01*
G01*
X185525000Y-89350000D02*
G75*
G02*
X185425000Y-89350000I-50000J0D01*
G01*
%TO.C,LED16*%
X207050000Y-89350000D02*
X207050000Y-89350000D01*
X207050000Y-89350000D02*
X207050000Y-89350000D01*
X207150000Y-89350000D02*
X207150000Y-89350000D01*
X208250000Y-90400000D02*
X208250000Y-91600000D01*
X209550000Y-88500000D02*
X211950000Y-88500000D01*
X209550000Y-93500000D02*
X211950000Y-93500000D01*
X213250000Y-90400000D02*
X213250000Y-91600000D01*
X207050000Y-89350000D02*
G75*
G02*
X207150000Y-89350000I50000J0D01*
G01*
X207150000Y-89350000D02*
G75*
G02*
X207050000Y-89350000I-50000J0D01*
G01*
X207150000Y-89350000D02*
G75*
G02*
X207050000Y-89350000I-50000J0D01*
G01*
%TO.C,LED3*%
X66487500Y-89350000D02*
X66487500Y-89350000D01*
X66487500Y-89350000D02*
X66487500Y-89350000D01*
X66587500Y-89350000D02*
X66587500Y-89350000D01*
X67687500Y-90400000D02*
X67687500Y-91600000D01*
X68987500Y-88500000D02*
X71387500Y-88500000D01*
X68987500Y-93500000D02*
X71387500Y-93500000D01*
X72687500Y-90400000D02*
X72687500Y-91600000D01*
X66487500Y-89350000D02*
G75*
G02*
X66587500Y-89350000I50000J0D01*
G01*
X66587500Y-89350000D02*
G75*
G02*
X66487500Y-89350000I-50000J0D01*
G01*
X66587500Y-89350000D02*
G75*
G02*
X66487500Y-89350000I-50000J0D01*
G01*
%TO.C,LED13*%
X174612500Y-89350000D02*
X174612500Y-89350000D01*
X174612500Y-89350000D02*
X174612500Y-89350000D01*
X174712500Y-89350000D02*
X174712500Y-89350000D01*
X175812500Y-90400000D02*
X175812500Y-91600000D01*
X177112500Y-88500000D02*
X179512500Y-88500000D01*
X177112500Y-93500000D02*
X179512500Y-93500000D01*
X180812500Y-90400000D02*
X180812500Y-91600000D01*
X174612500Y-89350000D02*
G75*
G02*
X174712500Y-89350000I50000J0D01*
G01*
X174712500Y-89350000D02*
G75*
G02*
X174612500Y-89350000I-50000J0D01*
G01*
X174712500Y-89350000D02*
G75*
G02*
X174612500Y-89350000I-50000J0D01*
G01*
%TO.C,LED17*%
X217862500Y-89350000D02*
X217862500Y-89350000D01*
X217862500Y-89350000D02*
X217862500Y-89350000D01*
X217962500Y-89350000D02*
X217962500Y-89350000D01*
X219062500Y-90400000D02*
X219062500Y-91600000D01*
X220362500Y-88500000D02*
X222762500Y-88500000D01*
X220362500Y-93500000D02*
X222762500Y-93500000D01*
X224062500Y-90400000D02*
X224062500Y-91600000D01*
X217862500Y-89350000D02*
G75*
G02*
X217962500Y-89350000I50000J0D01*
G01*
X217962500Y-89350000D02*
G75*
G02*
X217862500Y-89350000I-50000J0D01*
G01*
X217962500Y-89350000D02*
G75*
G02*
X217862500Y-89350000I-50000J0D01*
G01*
%TO.C,LED10*%
X142175000Y-89350000D02*
X142175000Y-89350000D01*
X142175000Y-89350000D02*
X142175000Y-89350000D01*
X142275000Y-89350000D02*
X142275000Y-89350000D01*
X143375000Y-90400000D02*
X143375000Y-91600000D01*
X144675000Y-88500000D02*
X147075000Y-88500000D01*
X144675000Y-93500000D02*
X147075000Y-93500000D01*
X148375000Y-90400000D02*
X148375000Y-91600000D01*
X142175000Y-89350000D02*
G75*
G02*
X142275000Y-89350000I50000J0D01*
G01*
X142275000Y-89350000D02*
G75*
G02*
X142175000Y-89350000I-50000J0D01*
G01*
X142275000Y-89350000D02*
G75*
G02*
X142175000Y-89350000I-50000J0D01*
G01*
%TO.C,LED11*%
X152987500Y-89350000D02*
X152987500Y-89350000D01*
X152987500Y-89350000D02*
X152987500Y-89350000D01*
X153087500Y-89350000D02*
X153087500Y-89350000D01*
X154187500Y-90400000D02*
X154187500Y-91600000D01*
X155487500Y-88500000D02*
X157887500Y-88500000D01*
X155487500Y-93500000D02*
X157887500Y-93500000D01*
X159187500Y-90400000D02*
X159187500Y-91600000D01*
X152987500Y-89350000D02*
G75*
G02*
X153087500Y-89350000I50000J0D01*
G01*
X153087500Y-89350000D02*
G75*
G02*
X152987500Y-89350000I-50000J0D01*
G01*
X153087500Y-89350000D02*
G75*
G02*
X152987500Y-89350000I-50000J0D01*
G01*
%TO.C,LED7*%
X109737500Y-89350000D02*
X109737500Y-89350000D01*
X109737500Y-89350000D02*
X109737500Y-89350000D01*
X109837500Y-89350000D02*
X109837500Y-89350000D01*
X110937500Y-90400000D02*
X110937500Y-91600000D01*
X112237500Y-88500000D02*
X114637500Y-88500000D01*
X112237500Y-93500000D02*
X114637500Y-93500000D01*
X115937500Y-90400000D02*
X115937500Y-91600000D01*
X109737500Y-89350000D02*
G75*
G02*
X109837500Y-89350000I50000J0D01*
G01*
X109837500Y-89350000D02*
G75*
G02*
X109737500Y-89350000I-50000J0D01*
G01*
X109837500Y-89350000D02*
G75*
G02*
X109737500Y-89350000I-50000J0D01*
G01*
%TD*%
M02*
