%TF.GenerationSoftware,KiCad,Pcbnew,8.99.0-3458-gcd40f6046b*%
%TF.CreationDate,2025-04-04T18:06:16+05:30*%
%TF.ProjectId,Lighting for printopus,4c696768-7469-46e6-9720-666f72207072,rev?*%
%TF.SameCoordinates,Original*%
%TF.FileFunction,Copper,L1,Top*%
%TF.FilePolarity,Positive*%
%FSLAX46Y46*%
G04 Gerber Fmt 4.6, Leading zero omitted, Abs format (unit mm)*
G04 Created by KiCad (PCBNEW 8.99.0-3458-gcd40f6046b) date 2025-04-04 18:06:16*
%MOMM*%
%LPD*%
G01*
G04 APERTURE LIST*
%TA.AperFunction,SMDPad,CuDef*%
%ADD10R,1.500000X0.900000*%
%TD*%
%TA.AperFunction,ComponentPad*%
%ADD11C,1.371600*%
%TD*%
%TA.AperFunction,ComponentPad*%
%ADD12C,1.400000*%
%TD*%
%TA.AperFunction,Conductor*%
%ADD13C,0.200000*%
%TD*%
G04 APERTURE END LIST*
D10*
%TO.P,LED6,1,VDD*%
%TO.N,Net-(LED1-VDD)*%
X100175000Y-89350000D03*
%TO.P,LED6,2,DOUT*%
%TO.N,Net-(LED5-DIN)*%
X100175000Y-92650000D03*
%TO.P,LED6,3,VSS*%
%TO.N,Net-(LED1-VSS)*%
X105075000Y-92650000D03*
%TO.P,LED6,4,DIN*%
%TO.N,Net-(LED6-DIN)*%
X105075000Y-89350000D03*
%TD*%
D11*
%TO.P,C1,1*%
%TO.N,Net-(LED1-VDD)*%
X234500000Y-89500000D03*
%TO.P,C1,2*%
%TO.N,Net-(LED1-VSS)*%
X234500000Y-93000001D03*
%TD*%
D10*
%TO.P,LED15,1,VDD*%
%TO.N,Net-(LED1-VDD)*%
X197487500Y-89350000D03*
%TO.P,LED15,2,DOUT*%
%TO.N,Net-(LED14-DIN)*%
X197487500Y-92650000D03*
%TO.P,LED15,3,VSS*%
%TO.N,Net-(LED1-VSS)*%
X202387500Y-92650000D03*
%TO.P,LED15,4,DIN*%
%TO.N,Net-(LED15-DIN)*%
X202387500Y-89350000D03*
%TD*%
%TO.P,LED12,1,VDD*%
%TO.N,Net-(LED1-VDD)*%
X165050000Y-89350000D03*
%TO.P,LED12,2,DOUT*%
%TO.N,Net-(LED11-DIN)*%
X165050000Y-92650000D03*
%TO.P,LED12,3,VSS*%
%TO.N,Net-(LED1-VSS)*%
X169950000Y-92650000D03*
%TO.P,LED12,4,DIN*%
%TO.N,Net-(LED12-DIN)*%
X169950000Y-89350000D03*
%TD*%
%TO.P,LED2,1,VDD*%
%TO.N,Net-(LED1-VDD)*%
X56925000Y-89350000D03*
%TO.P,LED2,2,DOUT*%
%TO.N,Net-(LED1-DIN)*%
X56925000Y-92650000D03*
%TO.P,LED2,3,VSS*%
%TO.N,Net-(LED1-VSS)*%
X61825000Y-92650000D03*
%TO.P,LED2,4,DIN*%
%TO.N,Net-(LED2-DIN)*%
X61825000Y-89350000D03*
%TD*%
%TO.P,LED8,1,VDD*%
%TO.N,Net-(LED1-VDD)*%
X121800000Y-89350000D03*
%TO.P,LED8,2,DOUT*%
%TO.N,Net-(LED7-DIN)*%
X121800000Y-92650000D03*
%TO.P,LED8,3,VSS*%
%TO.N,Net-(LED1-VSS)*%
X126700000Y-92650000D03*
%TO.P,LED8,4,DIN*%
%TO.N,Net-(LED8-DIN)*%
X126700000Y-89350000D03*
%TD*%
%TO.P,LED5,1,VDD*%
%TO.N,Net-(LED1-VDD)*%
X89362500Y-89350000D03*
%TO.P,LED5,2,DOUT*%
%TO.N,Net-(LED4-DIN)*%
X89362500Y-92650000D03*
%TO.P,LED5,3,VSS*%
%TO.N,Net-(LED1-VSS)*%
X94262500Y-92650000D03*
%TO.P,LED5,4,DIN*%
%TO.N,Net-(LED5-DIN)*%
X94262500Y-89350000D03*
%TD*%
%TO.P,LED9,1,VDD*%
%TO.N,Net-(LED1-VDD)*%
X132612500Y-89350000D03*
%TO.P,LED9,2,DOUT*%
%TO.N,Net-(LED8-DIN)*%
X132612500Y-92650000D03*
%TO.P,LED9,3,VSS*%
%TO.N,Net-(LED1-VSS)*%
X137512500Y-92650000D03*
%TO.P,LED9,4,DIN*%
%TO.N,Net-(LED10-DOUT)*%
X137512500Y-89350000D03*
%TD*%
%TO.P,LED4,1,VDD*%
%TO.N,Net-(LED1-VDD)*%
X78550000Y-89350000D03*
%TO.P,LED4,2,DOUT*%
%TO.N,Net-(LED3-DIN)*%
X78550000Y-92650000D03*
%TO.P,LED4,3,VSS*%
%TO.N,Net-(LED1-VSS)*%
X83450000Y-92650000D03*
%TO.P,LED4,4,DIN*%
%TO.N,Net-(LED4-DIN)*%
X83450000Y-89350000D03*
%TD*%
D12*
%TO.P,J1,1,1*%
%TO.N,Net-(LED1-VDD)*%
X246000000Y-87850000D03*
%TO.P,J1,2,2*%
%TO.N,Net-(LED17-DIN)*%
X246000000Y-90350000D03*
%TO.P,J1,3,3*%
%TO.N,Net-(LED1-VSS)*%
X246000000Y-92850000D03*
%TD*%
D10*
%TO.P,LED1,1,VDD*%
%TO.N,Net-(LED1-VDD)*%
X46112500Y-89350000D03*
%TO.P,LED1,2,DOUT*%
%TO.N,unconnected-(LED1-DOUT-Pad2)*%
X46112500Y-92650000D03*
%TO.P,LED1,3,VSS*%
%TO.N,Net-(LED1-VSS)*%
X51012500Y-92650000D03*
%TO.P,LED1,4,DIN*%
%TO.N,Net-(LED1-DIN)*%
X51012500Y-89350000D03*
%TD*%
%TO.P,LED14,1,VDD*%
%TO.N,Net-(LED1-VDD)*%
X186675000Y-89350000D03*
%TO.P,LED14,2,DOUT*%
%TO.N,Net-(LED13-DIN)*%
X186675000Y-92650000D03*
%TO.P,LED14,3,VSS*%
%TO.N,Net-(LED1-VSS)*%
X191575000Y-92650000D03*
%TO.P,LED14,4,DIN*%
%TO.N,Net-(LED14-DIN)*%
X191575000Y-89350000D03*
%TD*%
%TO.P,LED16,1,VDD*%
%TO.N,Net-(LED1-VDD)*%
X208300000Y-89350000D03*
%TO.P,LED16,2,DOUT*%
%TO.N,Net-(LED15-DIN)*%
X208300000Y-92650000D03*
%TO.P,LED16,3,VSS*%
%TO.N,Net-(LED1-VSS)*%
X213200000Y-92650000D03*
%TO.P,LED16,4,DIN*%
%TO.N,Net-(LED16-DIN)*%
X213200000Y-89350000D03*
%TD*%
%TO.P,LED3,1,VDD*%
%TO.N,Net-(LED1-VDD)*%
X67737500Y-89350000D03*
%TO.P,LED3,2,DOUT*%
%TO.N,Net-(LED2-DIN)*%
X67737500Y-92650000D03*
%TO.P,LED3,3,VSS*%
%TO.N,Net-(LED1-VSS)*%
X72637500Y-92650000D03*
%TO.P,LED3,4,DIN*%
%TO.N,Net-(LED3-DIN)*%
X72637500Y-89350000D03*
%TD*%
%TO.P,LED13,1,VDD*%
%TO.N,Net-(LED1-VDD)*%
X175862500Y-89350000D03*
%TO.P,LED13,2,DOUT*%
%TO.N,Net-(LED12-DIN)*%
X175862500Y-92650000D03*
%TO.P,LED13,3,VSS*%
%TO.N,Net-(LED1-VSS)*%
X180762500Y-92650000D03*
%TO.P,LED13,4,DIN*%
%TO.N,Net-(LED13-DIN)*%
X180762500Y-89350000D03*
%TD*%
%TO.P,LED17,1,VDD*%
%TO.N,Net-(LED1-VDD)*%
X219112500Y-89350000D03*
%TO.P,LED17,2,DOUT*%
%TO.N,Net-(LED16-DIN)*%
X219112500Y-92650000D03*
%TO.P,LED17,3,VSS*%
%TO.N,Net-(LED1-VSS)*%
X224012500Y-92650000D03*
%TO.P,LED17,4,DIN*%
%TO.N,Net-(LED17-DIN)*%
X224012500Y-89350000D03*
%TD*%
%TO.P,LED10,1,VDD*%
%TO.N,Net-(LED1-VDD)*%
X143425000Y-89350000D03*
%TO.P,LED10,2,DOUT*%
%TO.N,Net-(LED10-DOUT)*%
X143425000Y-92650000D03*
%TO.P,LED10,3,VSS*%
%TO.N,unconnected-(LED10-VSS-Pad3)*%
X148325000Y-92650000D03*
%TO.P,LED10,4,DIN*%
%TO.N,Net-(LED10-DIN)*%
X148325000Y-89350000D03*
%TD*%
%TO.P,LED11,1,VDD*%
%TO.N,Net-(LED1-VDD)*%
X154237500Y-89350000D03*
%TO.P,LED11,2,DOUT*%
%TO.N,Net-(LED10-DIN)*%
X154237500Y-92650000D03*
%TO.P,LED11,3,VSS*%
%TO.N,Net-(LED1-VSS)*%
X159137500Y-92650000D03*
%TO.P,LED11,4,DIN*%
%TO.N,Net-(LED11-DIN)*%
X159137500Y-89350000D03*
%TD*%
%TO.P,LED7,1,VDD*%
%TO.N,Net-(LED1-VDD)*%
X110987500Y-89350000D03*
%TO.P,LED7,2,DOUT*%
%TO.N,Net-(LED6-DIN)*%
X110987500Y-92650000D03*
%TO.P,LED7,3,VSS*%
%TO.N,Net-(LED1-VSS)*%
X115887500Y-92650000D03*
%TO.P,LED7,4,DIN*%
%TO.N,Net-(LED7-DIN)*%
X115887500Y-89350000D03*
%TD*%
D13*
%TO.N,Net-(LED1-VDD)*%
X120748300Y-89350000D02*
X119996600Y-88598300D01*
X143425000Y-89350000D02*
X144476700Y-89350000D01*
X154237500Y-89350000D02*
X155289200Y-89350000D01*
X88310800Y-88598300D02*
X98371600Y-88598300D01*
X112790900Y-88598300D02*
X99875000Y-88598300D01*
X208300000Y-89350000D02*
X209351700Y-89350000D01*
X55121600Y-88598300D02*
X55873300Y-89350000D01*
X67737500Y-89350000D02*
X68789200Y-89350000D01*
X175862500Y-89350000D02*
X174810800Y-89350000D01*
X185623300Y-89350000D02*
X186375000Y-88598300D01*
X100175000Y-89350000D02*
X99123300Y-89350000D01*
X164750000Y-88598300D02*
X163998300Y-89350000D01*
X175562500Y-88598300D02*
X174810800Y-89350000D01*
X210103400Y-88598300D02*
X217309100Y-88598300D01*
X217309100Y-88598300D02*
X234500000Y-88598300D01*
X155289200Y-88598300D02*
X163246600Y-88598300D01*
X98371600Y-88598300D02*
X99123300Y-89350000D01*
X163246600Y-88598300D02*
X163998300Y-89350000D01*
X46112500Y-89350000D02*
X47164200Y-89350000D01*
X88310800Y-88598300D02*
X88310800Y-89350000D01*
X174810800Y-89350000D02*
X174059100Y-88598300D01*
X219112500Y-89350000D02*
X218060800Y-89350000D01*
X186375000Y-88598300D02*
X195684100Y-88598300D01*
X131560800Y-89350000D02*
X130809100Y-88598300D01*
X186675000Y-89350000D02*
X185623300Y-89350000D01*
X208600000Y-88598300D02*
X209351700Y-89350000D01*
X47915900Y-88598300D02*
X55121600Y-88598300D01*
X185623300Y-89350000D02*
X184871600Y-88598300D01*
X197487500Y-89350000D02*
X196435800Y-89350000D01*
X144476700Y-89350000D02*
X145228400Y-88598300D01*
X119996600Y-88598300D02*
X112790900Y-88598300D01*
X132612500Y-89350000D02*
X131560800Y-89350000D01*
X78550000Y-89350000D02*
X77498300Y-89350000D01*
X184871600Y-88598300D02*
X175562500Y-88598300D01*
X145228400Y-88598300D02*
X155289200Y-88598300D01*
X120748300Y-89350000D02*
X121500000Y-88598300D01*
X165050000Y-89350000D02*
X163998300Y-89350000D01*
X143725000Y-88598300D02*
X144476700Y-89350000D01*
X234500000Y-88598300D02*
X245251700Y-88598300D01*
X112039200Y-89350000D02*
X112790900Y-88598300D01*
X56925000Y-89350000D02*
X55873300Y-89350000D01*
X196435800Y-89350000D02*
X195684100Y-88598300D01*
X155289200Y-89350000D02*
X155289200Y-88598300D01*
X69540900Y-88598300D02*
X56625000Y-88598300D01*
X195684100Y-88598300D02*
X208600000Y-88598300D01*
X245251700Y-88598300D02*
X246000000Y-87850000D01*
X121800000Y-89350000D02*
X120748300Y-89350000D01*
X77498300Y-88598300D02*
X69540900Y-88598300D01*
X130809100Y-88598300D02*
X143725000Y-88598300D01*
X174059100Y-88598300D02*
X164750000Y-88598300D01*
X209351700Y-89350000D02*
X210103400Y-88598300D01*
X218060800Y-89350000D02*
X217309100Y-88598300D01*
X234500000Y-88598300D02*
X234500000Y-89500000D01*
X68789200Y-89350000D02*
X69540900Y-88598300D01*
X121500000Y-88598300D02*
X130809100Y-88598300D01*
X56625000Y-88598300D02*
X55873300Y-89350000D01*
X110987500Y-89350000D02*
X112039200Y-89350000D01*
X99875000Y-88598300D02*
X99123300Y-89350000D01*
X89362500Y-89350000D02*
X88310800Y-89350000D01*
X77498300Y-88598300D02*
X88310800Y-88598300D01*
X77498300Y-88598300D02*
X77498300Y-89350000D01*
X47164200Y-89350000D02*
X47915900Y-88598300D01*
%TO.N,Net-(LED1-VSS)*%
X83450000Y-92650000D02*
X82398300Y-92650000D01*
X234650000Y-92850000D02*
X234500000Y-93000000D01*
X51012500Y-92650000D02*
X52064200Y-92650000D01*
X103271600Y-93401700D02*
X93962500Y-93401700D01*
X117690900Y-93401700D02*
X116939200Y-92650000D01*
X160189200Y-93401700D02*
X139315900Y-93401700D01*
X105075000Y-92650000D02*
X104023300Y-92650000D01*
X74440900Y-93401700D02*
X73689200Y-92650000D01*
X171001700Y-93401700D02*
X160189200Y-93401700D01*
X212148300Y-93401700D02*
X222209100Y-93401700D01*
X94262500Y-92650000D02*
X93210800Y-92650000D01*
X191575000Y-92650000D02*
X190523300Y-92650000D01*
X82398300Y-92650000D02*
X81646600Y-93401700D01*
X72637500Y-92650000D02*
X73689200Y-92650000D01*
X191275000Y-93401700D02*
X190523300Y-92650000D01*
X93962500Y-93401700D02*
X93210800Y-92650000D01*
X83150000Y-93401700D02*
X82398300Y-92650000D01*
X124896600Y-93401700D02*
X137812500Y-93401700D01*
X160189200Y-93401700D02*
X160189200Y-92650000D01*
X92459100Y-93401700D02*
X83150000Y-93401700D01*
X61825000Y-92650000D02*
X60773300Y-92650000D01*
X212148300Y-92650000D02*
X212148300Y-93401700D01*
X171001700Y-92650000D02*
X171001700Y-93401700D01*
X126700000Y-92650000D02*
X125648300Y-92650000D01*
X234150000Y-92650000D02*
X234500000Y-93000000D01*
X189771600Y-93401700D02*
X182565900Y-93401700D01*
X104775000Y-93401700D02*
X104023300Y-92650000D01*
X224012500Y-92650000D02*
X222960800Y-92650000D01*
X180762500Y-92650000D02*
X181814200Y-92650000D01*
X181814200Y-92650000D02*
X181062500Y-93401700D01*
X222209100Y-93401700D02*
X222960800Y-92650000D01*
X60021600Y-93401700D02*
X60773300Y-92650000D01*
X159137500Y-92650000D02*
X160189200Y-92650000D01*
X125648300Y-92650000D02*
X124896600Y-93401700D01*
X104023300Y-92650000D02*
X103271600Y-93401700D01*
X137512500Y-92650000D02*
X138564200Y-92650000D01*
X182565900Y-93401700D02*
X181814200Y-92650000D01*
X81646600Y-93401700D02*
X74440900Y-93401700D01*
X115887500Y-92650000D02*
X116939200Y-92650000D01*
X60021600Y-93401700D02*
X72937500Y-93401700D01*
X181062500Y-93401700D02*
X171001700Y-93401700D01*
X201335800Y-93401700D02*
X191275000Y-93401700D01*
X169950000Y-92650000D02*
X171001700Y-92650000D01*
X52815900Y-93401700D02*
X60021600Y-93401700D01*
X202387500Y-92650000D02*
X201335800Y-92650000D01*
X213200000Y-92650000D02*
X212148300Y-92650000D01*
X201335800Y-93401700D02*
X212148300Y-93401700D01*
X246000000Y-92850000D02*
X234650000Y-92850000D01*
X139315900Y-93401700D02*
X138564200Y-92650000D01*
X137812500Y-93401700D02*
X138564200Y-92650000D01*
X93210800Y-92650000D02*
X92459100Y-93401700D01*
X190523300Y-92650000D02*
X189771600Y-93401700D01*
X52064200Y-92650000D02*
X52815900Y-93401700D01*
X224012500Y-92650000D02*
X234150000Y-92650000D01*
X117690900Y-93401700D02*
X104775000Y-93401700D01*
X201335800Y-92650000D02*
X201335800Y-93401700D01*
X72937500Y-93401700D02*
X73689200Y-92650000D01*
X117690900Y-93401700D02*
X124896600Y-93401700D01*
%TO.N,Net-(LED17-DIN)*%
X224012500Y-89350000D02*
X225064200Y-89350000D01*
X246000000Y-90350000D02*
X245831300Y-90518700D01*
X226232900Y-90518700D02*
X225064200Y-89350000D01*
X245831300Y-90518700D02*
X226232900Y-90518700D01*
%TO.N,Net-(LED1-DIN)*%
X56925000Y-92650000D02*
X55873300Y-92650000D01*
X52573300Y-89350000D02*
X55873300Y-92650000D01*
X51012500Y-89350000D02*
X52573300Y-89350000D01*
%TO.N,Net-(LED2-DIN)*%
X67737500Y-92650000D02*
X66685800Y-92650000D01*
X66685800Y-92650000D02*
X63385800Y-89350000D01*
X63385800Y-89350000D02*
X61825000Y-89350000D01*
%TO.N,Net-(LED3-DIN)*%
X74198300Y-89350000D02*
X77498300Y-92650000D01*
X78550000Y-92650000D02*
X77498300Y-92650000D01*
X72637500Y-89350000D02*
X74198300Y-89350000D01*
%TO.N,Net-(LED4-DIN)*%
X83450000Y-89350000D02*
X85010800Y-89350000D01*
X89362500Y-92650000D02*
X88310800Y-92650000D01*
X85010800Y-89350000D02*
X88310800Y-92650000D01*
%TO.N,Net-(LED5-DIN)*%
X100175000Y-92650000D02*
X99123300Y-92650000D01*
X94262500Y-89350000D02*
X95823300Y-89350000D01*
X95823300Y-89350000D02*
X99123300Y-92650000D01*
%TO.N,Net-(LED6-DIN)*%
X110987500Y-92650000D02*
X109935800Y-92650000D01*
X106635800Y-89350000D02*
X105075000Y-89350000D01*
X109935800Y-92650000D02*
X106635800Y-89350000D01*
%TO.N,Net-(LED7-DIN)*%
X115887500Y-89350000D02*
X117448300Y-89350000D01*
X117448300Y-89350000D02*
X120748300Y-92650000D01*
X121800000Y-92650000D02*
X120748300Y-92650000D01*
%TO.N,Net-(LED8-DIN)*%
X131560800Y-92650000D02*
X128260800Y-89350000D01*
X132612500Y-92650000D02*
X131560800Y-92650000D01*
X128260800Y-89350000D02*
X126700000Y-89350000D01*
%TO.N,Net-(LED10-DOUT)*%
X143425000Y-92650000D02*
X141864200Y-92650000D01*
X137512500Y-89350000D02*
X138564200Y-89350000D01*
X141864200Y-92650000D02*
X138564200Y-89350000D01*
%TO.N,Net-(LED10-DIN)*%
X149885800Y-89350000D02*
X148325000Y-89350000D01*
X153185800Y-92650000D02*
X149885800Y-89350000D01*
X154237500Y-92650000D02*
X153185800Y-92650000D01*
%TO.N,Net-(LED11-DIN)*%
X160698300Y-89350000D02*
X163998300Y-92650000D01*
X159137500Y-89350000D02*
X160698300Y-89350000D01*
X165050000Y-92650000D02*
X163998300Y-92650000D01*
%TO.N,Net-(LED12-DIN)*%
X175862500Y-92650000D02*
X174810800Y-92650000D01*
X171510800Y-89350000D02*
X169950000Y-89350000D01*
X174810800Y-92650000D02*
X171510800Y-89350000D01*
%TO.N,Net-(LED13-DIN)*%
X186675000Y-92650000D02*
X185623300Y-92650000D01*
X180762500Y-89350000D02*
X182323300Y-89350000D01*
X182323300Y-89350000D02*
X185623300Y-92650000D01*
%TO.N,Net-(LED14-DIN)*%
X193135800Y-89350000D02*
X196435800Y-92650000D01*
X191575000Y-89350000D02*
X193135800Y-89350000D01*
X197487500Y-92650000D02*
X196435800Y-92650000D01*
%TO.N,Net-(LED15-DIN)*%
X206739200Y-92650000D02*
X203439200Y-89350000D01*
X208300000Y-92650000D02*
X206739200Y-92650000D01*
X202387500Y-89350000D02*
X203439200Y-89350000D01*
%TO.N,Net-(LED16-DIN)*%
X218060800Y-92650000D02*
X214760800Y-89350000D01*
X219112500Y-92650000D02*
X218060800Y-92650000D01*
X214760800Y-89350000D02*
X213200000Y-89350000D01*
%TD*%
M02*
